<svg width="1920" height="1080" viewBox="0 0 1920 1080" fill="none" xmlns="http://www.w3.org/2000/svg">
  <rect width="1920" height="1080" fill="#050B14"/>
  <rect width="1920" height="1080" fill="url(#bg)"/>
  <g opacity="0.5">
    <path d="M0 162H1920" stroke="#DCE8FF" stroke-opacity="0.05" stroke-width="2"/>
    <path d="M0 324H1920" stroke="#DCE8FF" stroke-opacity="0.05" stroke-width="2"/>
    <path d="M0 486H1920" stroke="#DCE8FF" stroke-opacity="0.05" stroke-width="2"/>
    <path d="M0 648H1920" stroke="#DCE8FF" stroke-opacity="0.05" stroke-width="2"/>
    <path d="M0 810H1920" stroke="#DCE8FF" stroke-opacity="0.05" stroke-width="2"/>
    <path d="M240 0V1080" stroke="#DCE8FF" stroke-opacity="0.04" stroke-width="2"/>
    <path d="M480 0V1080" stroke="#DCE8FF" stroke-opacity="0.04" stroke-width="2"/>
    <path d="M720 0V1080" stroke="#DCE8FF" stroke-opacity="0.04" stroke-width="2"/>
    <path d="M960 0V1080" stroke="#DCE8FF" stroke-opacity="0.04" stroke-width="2"/>
    <path d="M1200 0V1080" stroke="#DCE8FF" stroke-opacity="0.04" stroke-width="2"/>
    <path d="M1440 0V1080" stroke="#DCE8FF" stroke-opacity="0.04" stroke-width="2"/>
    <path d="M1680 0V1080" stroke="#DCE8FF" stroke-opacity="0.04" stroke-width="2"/>
  </g>
  <circle cx="1418" cy="220" r="176" fill="url(#sun)"/>
  <path d="M0 846C212 790 402 762 570 762C786 762 985 814 1168 814C1328 814 1578 734 1920 594V1080H0V846Z" fill="url(#ground)"/>
  <path d="M0 914C208 866 406 842 594 842C788 842 1022 892 1212 892C1422 892 1658 810 1920 706" stroke="#4CC9F0" stroke-opacity="0.2" stroke-width="4"/>
  <g opacity="0.95">
    <rect x="158" y="520" width="66" height="268" fill="#061120"/>
    <rect x="276" y="478" width="74" height="310" fill="#091526"/>
    <rect x="426" y="396" width="92" height="392" fill="#071321"/>
    <rect x="590" y="316" width="124" height="472" fill="#081424"/>
    <rect x="784" y="270" width="96" height="518" fill="#091522"/>
    <rect x="970" y="426" width="82" height="362" fill="#06101B"/>
    <rect x="1096" y="488" width="66" height="300" fill="#081321"/>
  </g>
  <g opacity="0.92">
    <rect x="183" y="566" width="14" height="62" fill="#DCE8FF"/>
    <rect x="183" y="646" width="14" height="84" fill="#4CC9F0"/>
    <rect x="300" y="524" width="16" height="96" fill="#FF4D8D"/>
    <rect x="451" y="430" width="18" height="64" fill="#4CC9F0"/>
    <rect x="451" y="520" width="18" height="160" fill="#DCE8FF"/>
    <rect x="624" y="380" width="20" height="114" fill="#FF4D8D"/>
    <rect x="669" y="350" width="20" height="178" fill="#4CC9F0"/>
    <rect x="817" y="322" width="18" height="90" fill="#DCE8FF"/>
    <rect x="817" y="432" width="18" height="214" fill="#4CC9F0"/>
    <rect x="1004" y="470" width="14" height="108" fill="#FF4D8D"/>
    <rect x="1118" y="542" width="14" height="74" fill="#DCE8FF"/>
  </g>
  <path d="M1328 330H1722V756H1328V330Z" fill="#09111A" fill-opacity="0.7"/>
  <path d="M1358 362H1692V724H1358V362Z" fill="#0C1723" fill-opacity="0.95"/>
  <rect x="1398" y="414" width="256" height="42" rx="21" fill="#111F31"/>
  <text x="1440" y="442" fill="#DCE8FF" fill-opacity="0.85" font-family="'Segoe UI', 'Yu Gothic UI', sans-serif" font-size="28" letter-spacing="8">TOKYO SIGNAL</text>
  <text x="1408" y="512" fill="#4CC9F0" font-family="'Segoe UI', 'Yu Gothic UI', sans-serif" font-size="52" letter-spacing="12">ERINMI4</text>
  <text x="1408" y="580" fill="#DCE8FF" fill-opacity="0.72" font-family="'Segoe UI', 'Yu Gothic UI', sans-serif" font-size="26" letter-spacing="6">CODE / NOTES / PROJECTS / LONG GAME</text>
  <path d="M1408 620H1628" stroke="#4CC9F0" stroke-opacity="0.42" stroke-width="3"/>
  <path d="M1408 664H1582" stroke="#FF4D8D" stroke-opacity="0.5" stroke-width="3"/>
  <text x="1412" y="708" fill="#DCE8FF" fill-opacity="0.56" font-family="'Segoe UI', 'Yu Gothic UI', sans-serif" font-size="24" letter-spacing="4">SHIBUYA / AKIHABARA / ODAIBA / MIDNIGHT TRANSIT</text>
  <defs>
    <linearGradient id="bg" x1="960" y1="0" x2="960" y2="1080" gradientUnits="userSpaceOnUse">
      <stop stop-color="#08111F"/>
      <stop offset="0.48" stop-color="#060B14"/>
      <stop offset="1" stop-color="#04070D"/>
    </linearGradient>
    <radialGradient id="sun" cx="0" cy="0" r="1" gradientUnits="userSpaceOnUse" gradientTransform="translate(1418 220) rotate(90) scale(176)">
      <stop stop-color="#FF5A97" stop-opacity="0.9"/>
      <stop offset="0.54" stop-color="#FE5A97" stop-opacity="0.44"/>
      <stop offset="1" stop-color="#FE5A97" stop-opacity="0"/>
    </radialGradient>
    <linearGradient id="ground" x1="960" y1="594" x2="960" y2="1080" gradientUnits="userSpaceOnUse">
      <stop stop-color="#07101A" stop-opacity="0.2"/>
      <stop offset="1" stop-color="#03070D"/>
    </linearGradient>
  </defs>
</svg>
