<svg width="1920" height="1080" viewBox="0 0 1920 1080" fill="none" xmlns="http://www.w3.org/2000/svg">
  <rect width="1920" height="1080" fill="#040A14"/>
  <rect width="1920" height="1080" fill="url(#wash)"/>
  <path d="M0 870H1920" stroke="url(#horizon)" stroke-width="4"/>
  <path d="M0 880H1920" stroke="rgba(76,201,240,0.15)" stroke-width="2"/>
  <g opacity="0.34">
    <path d="M0 0H1920" stroke="#4CC9F0" stroke-opacity="0.08" stroke-width="2"/>
    <path d="M0 120H1920" stroke="#4CC9F0" stroke-opacity="0.07" stroke-width="2"/>
    <path d="M0 240H1920" stroke="#4CC9F0" stroke-opacity="0.07" stroke-width="2"/>
    <path d="M0 360H1920" stroke="#4CC9F0" stroke-opacity="0.07" stroke-width="2"/>
    <path d="M0 480H1920" stroke="#4CC9F0" stroke-opacity="0.07" stroke-width="2"/>
    <path d="M0 600H1920" stroke="#4CC9F0" stroke-opacity="0.07" stroke-width="2"/>
    <path d="M0 720H1920" stroke="#4CC9F0" stroke-opacity="0.07" stroke-width="2"/>
    <path d="M0 840H1920" stroke="#4CC9F0" stroke-opacity="0.07" stroke-width="2"/>
    <path d="M0 960H1920" stroke="#4CC9F0" stroke-opacity="0.07" stroke-width="2"/>
    <path d="M0 0V1080" stroke="#4CC9F0" stroke-opacity="0.06" stroke-width="2"/>
    <path d="M160 0V1080" stroke="#4CC9F0" stroke-opacity="0.06" stroke-width="2"/>
    <path d="M320 0V1080" stroke="#4CC9F0" stroke-opacity="0.06" stroke-width="2"/>
    <path d="M480 0V1080" stroke="#4CC9F0" stroke-opacity="0.06" stroke-width="2"/>
    <path d="M640 0V1080" stroke="#4CC9F0" stroke-opacity="0.06" stroke-width="2"/>
    <path d="M800 0V1080" stroke="#4CC9F0" stroke-opacity="0.06" stroke-width="2"/>
    <path d="M960 0V1080" stroke="#4CC9F0" stroke-opacity="0.06" stroke-width="2"/>
    <path d="M1120 0V1080" stroke="#4CC9F0" stroke-opacity="0.06" stroke-width="2"/>
    <path d="M1280 0V1080" stroke="#4CC9F0" stroke-opacity="0.06" stroke-width="2"/>
    <path d="M1440 0V1080" stroke="#4CC9F0" stroke-opacity="0.06" stroke-width="2"/>
    <path d="M1600 0V1080" stroke="#4CC9F0" stroke-opacity="0.06" stroke-width="2"/>
    <path d="M1760 0V1080" stroke="#4CC9F0" stroke-opacity="0.06" stroke-width="2"/>
  </g>
  <g opacity="0.9">
    <path d="M0 940L960 760L1920 940" stroke="#4CC9F0" stroke-opacity="0.32" stroke-width="3"/>
    <path d="M0 998L960 780L1920 998" stroke="#4CC9F0" stroke-opacity="0.22" stroke-width="3"/>
    <path d="M0 1056L960 800L1920 1056" stroke="#4CC9F0" stroke-opacity="0.14" stroke-width="3"/>
  </g>
  <path d="M1097 315L1222 189" stroke="#FF4D8D" stroke-width="3" stroke-linecap="round"/>
  <path d="M1137 189H1186" stroke="#FF4D8D" stroke-width="3" stroke-linecap="round"/>
  <path d="M1162 164V213" stroke="#FF4D8D" stroke-width="3" stroke-linecap="round"/>
  <circle cx="324" cy="224" r="170" fill="url(#moon)" fill-opacity="0.75"/>
  <g opacity="0.9">
    <path d="M162 753H334V879H162V753Z" fill="#081628"/>
    <path d="M350 690H548V879H350V690Z" fill="#0B1A31"/>
    <path d="M585 608H812V879H585V608Z" fill="#091628"/>
    <path d="M844 552H1006V879H844V552Z" fill="#0C1B31"/>
    <path d="M1042 478H1254V879H1042V478Z" fill="#091523"/>
    <path d="M1298 630H1502V879H1298V630Z" fill="#081628"/>
    <path d="M1540 720H1740V879H1540V720Z" fill="#0A1830"/>
    <path d="M1760 664H1864V879H1760V664Z" fill="#09121C"/>
  </g>
  <g opacity="0.85">
    <rect x="212" y="794" width="12" height="26" fill="#4CC9F0"/>
    <rect x="242" y="794" width="12" height="38" fill="#D7E4FF"/>
    <rect x="458" y="776" width="10" height="28" fill="#FF4D8D"/>
    <rect x="488" y="744" width="10" height="76" fill="#4CC9F0"/>
    <rect x="726" y="722" width="14" height="62" fill="#D7E4FF"/>
    <rect x="752" y="748" width="14" height="112" fill="#4CC9F0"/>
    <rect x="874" y="622" width="18" height="144" fill="#FF4D8D"/>
    <rect x="912" y="658" width="18" height="96" fill="#4CC9F0"/>
    <rect x="1088" y="540" width="16" height="212" fill="#4CC9F0"/>
    <rect x="1122" y="584" width="16" height="146" fill="#D7E4FF"/>
    <rect x="1370" y="712" width="12" height="46" fill="#4CC9F0"/>
    <rect x="1690" y="762" width="10" height="42" fill="#FF4D8D"/>
  </g>
  <text x="132" y="966" fill="#D7E4FF" fill-opacity="0.62" font-family="'Segoe UI', 'Yu Gothic UI', sans-serif" font-size="28" letter-spacing="12">TOKYO / NIGHT PROTOCOL / 35.6762 N 139.6503 E</text>
  <defs>
    <linearGradient id="wash" x1="960" y1="0" x2="960" y2="1080" gradientUnits="userSpaceOnUse">
      <stop stop-color="#081322"/>
      <stop offset="0.55" stop-color="#050C16"/>
      <stop offset="1" stop-color="#03070D"/>
    </linearGradient>
    <linearGradient id="horizon" x1="0" y1="872" x2="1920" y2="872" gradientUnits="userSpaceOnUse">
      <stop stop-color="#4CC9F0" stop-opacity="0"/>
      <stop offset="0.5" stop-color="#4CC9F0"/>
      <stop offset="1" stop-color="#FF4D8D" stop-opacity="0"/>
    </linearGradient>
    <radialGradient id="moon" cx="0" cy="0" r="1" gradientUnits="userSpaceOnUse" gradientTransform="translate(324 224) rotate(90) scale(170)">
      <stop stop-color="#FF4D8D" stop-opacity="0.84"/>
      <stop offset="0.62" stop-color="#7A5CFF" stop-opacity="0.42"/>
      <stop offset="1" stop-color="#7A5CFF" stop-opacity="0"/>
    </radialGradient>
  </defs>
</svg>
